<?xml version="1.0" encoding="UTF-8" standalone="no"?>
<!-- Created with Inkscape (http://www.inkscape.org/) -->

<svg
   xmlns:dc="http://purl.org/dc/elements/1.1/"
   xmlns:cc="http://creativecommons.org/ns#"
   xmlns:rdf="http://www.w3.org/1999/02/22-rdf-syntax-ns#"
   xmlns:svg="http://www.w3.org/2000/svg"
   xmlns="http://www.w3.org/2000/svg"
   xmlns:sodipodi="http://sodipodi.sourceforge.net/DTD/sodipodi-0.dtd"
   xmlns:inkscape="http://www.inkscape.org/namespaces/inkscape"
   version="1.1"
   id="svg10"
   width="552"
   height="552"
   viewBox="0 0 552 552"
   sodipodi:docname="logo.svg"
   inkscape:version="0.92.1 r15371">
  <metadata
     id="metadata16">
    <rdf:RDF>
      <cc:Work
         rdf:about="">
        <dc:format>image/svg+xml</dc:format>
        <dc:type
           rdf:resource="http://purl.org/dc/dcmitype/StillImage" />
        <dc:title></dc:title>
      </cc:Work>
    </rdf:RDF>
  </metadata>
  <defs
     id="defs14" />
  <sodipodi:namedview
     pagecolor="#ffffff"
     bordercolor="#666666"
     borderopacity="1"
     objecttolerance="10"
     gridtolerance="10"
     guidetolerance="10"
     inkscape:pageopacity="0"
     inkscape:pageshadow="2"
     inkscape:window-width="1366"
     inkscape:window-height="745"
     id="namedview12"
     showgrid="false"
     inkscape:zoom="1.0434783"
     inkscape:cx="276"
     inkscape:cy="276"
     inkscape:window-x="-8"
     inkscape:window-y="-8"
     inkscape:window-maximized="1"
     inkscape:current-layer="svg10" />
  <g
     id="g20"
     transform="translate(16.291666,0.9583333)">
    <path
       style="fill:#8c8c8c;fill-opacity:1"
       d="m 160.54182,462.97441 c -23.43824,-3.5749 -38.29648,-12.49246 -42.08812,-25.26029 -1.30212,-4.38471 -1.49537,-27.50642 -1.49537,-178.91528 V 84.919004 l 91.75,0.394763 c 80.10468,0.344659 93.20963,0.612156 103.25,2.10753 23.9888,3.572801 41.31265,8.425611 57.90017,16.219173 35.60347,16.72811 56.3189,43.89655 63.86963,83.76551 1.54739,8.17045 1.7302,17.37685 1.7302,87.13569 0,69.75884 -0.18281,78.96524 -1.7302,87.13569 -10.9371,57.74951 -49.39071,89.31692 -121.7698,99.9635 -9.73575,1.43208 -21.77866,1.73335 -78.5,1.96377 -36.85,0.1497 -69.66243,-0.1339 -72.91651,-0.63022 z m 137.41651,-53.40305 c 35.84504,-6.66106 56.37445,-24.30759 64.25801,-55.23444 2.22105,-8.71311 2.24188,-9.46765 2.23037,-80.79525 -0.0115,-71.34141 -0.032,-72.07318 -2.23624,-80 -2.9824,-10.72509 -9.17977,-22.74725 -15.31485,-29.70903 -9.60079,-10.89449 -25.88927,-19.64707 -43.20195,-23.21448 -13.32476,-2.74566 -29.80708,-3.5443 -73.48534,-3.56066 l -42.25,-0.0158 v 137.5992 137.59923 l 50.25,-0.45169 c 42.40968,-0.38122 51.73225,-0.72714 59.75,-2.21708 z"
       id="path24"
       inkscape:connector-curvature="0" />
    <path
       style="fill:#333333;fill-opacity:1"
       d="m 163.01648,462.9734 c -9.50453,-1.16949 -21.11963,-4.35509 -27.42319,-7.52119 -7.89887,-3.96737 -12.31443,-8.05768 -15.332,-14.20263 l -2.80296,-5.70791 -0.26371,-175.33271 -0.26372,-175.332711 89.76372,0.45222 c 75.57333,0.380731 91.72631,0.711226 102.1785,2.090603 74.31485,9.807343 113.75984,41.785258 124.7355,101.122598 1.69567,9.1672 1.84971,16.32926 1.84971,86 0,69.67074 -0.15404,76.8328 -1.84971,86 -9.76477,52.79098 -41.90212,83.70072 -100.7355,96.88753 -23.68841,5.30947 -31.35657,5.78263 -99.41479,6.13433 -34.65,0.17905 -66.34883,-0.0865 -70.44185,-0.59013 z m 136.18038,-53.21361 c 28.5407,-5.7071 47.32782,-18.48167 57.07167,-38.80668 8.53356,-17.80045 8.1898,-13.75367 8.1898,-96.41144 0,-72.46178 -0.0165,-73.062 -2.24224,-81.4097 -3.73782,-14.01902 -8.48115,-22.38373 -18.22215,-32.13424 -10.10381,-10.11367 -19.94101,-15.52524 -35.30801,-19.4234 -15.1306,-3.83819 -26.67279,-4.53266 -75.33355,-4.53266 h -45.39405 v 137.57838 137.57839 l 51.75,-0.44561 c 41.32037,-0.35581 53.30961,-0.75748 59.48853,-1.99304 z"
       id="path22"
       inkscape:connector-curvature="0" />
  </g>
</svg>
